<svg xmlns="http://www.w3.org/2000/svg" xmlns:xlink="http://www.w3.org/1999/xlink" width="500" zoomAndPan="magnify" viewBox="0 0 375 374.999991" height="500" preserveAspectRatio="xMidYMid meet" version="1.0"><defs><clipPath id="a3957e5701"><path d="M 198 0 L 375 0 L 375 177 L 198 177 Z M 198 0 " clip-rule="nonzero"/></clipPath><clipPath id="6afbb346e6"><path d="M 342.046875 -32.929688 L 407.929688 32.953125 L 264.835938 176.046875 L 198.953125 110.164062 Z M 342.046875 -32.929688 " clip-rule="nonzero"/></clipPath><clipPath id="dbfe783954"><path d="M 374.988281 0.0117188 L 264.835938 176.046875 L 198.953125 110.164062 Z M 374.988281 0.0117188 " clip-rule="nonzero"/></clipPath><clipPath id="270e5b8c21"><path d="M 140 140 L 235 140 L 235 235 L 140 235 Z M 140 140 " clip-rule="nonzero"/></clipPath><clipPath id="cd695f61e1"><path d="M 187.496094 121.617188 L 253.378906 187.503906 L 187.496094 253.386719 L 121.613281 187.503906 Z M 187.496094 121.617188 " clip-rule="nonzero"/></clipPath><clipPath id="7e0fedd2f4"><path d="M 220.4375 154.558594 C 202.242188 136.367188 172.746094 136.367188 154.554688 154.558594 C 136.359375 172.753906 136.359375 202.25 154.554688 220.445312 C 172.746094 238.636719 202.242188 238.636719 220.4375 220.445312 C 238.628906 202.25 238.628906 172.753906 220.4375 154.558594 Z M 220.4375 154.558594 " clip-rule="nonzero"/></clipPath><clipPath id="c3602e9733"><path d="M 0 198 L 177 198 L 177 375 L 0 375 Z M 0 198 " clip-rule="nonzero"/></clipPath><clipPath id="f2a35fea8d"><path d="M 32.945312 407.925781 L -32.941406 342.042969 L 110.191406 198.910156 L 176.074219 264.796875 Z M 32.945312 407.925781 " clip-rule="nonzero"/></clipPath><clipPath id="2d860f12f2"><path d="M 0.00390625 374.984375 L 110.191406 198.910156 L 176.074219 264.796875 Z M 0.00390625 374.984375 " clip-rule="nonzero"/></clipPath></defs><path fill="#00022b" d="M 230.042969 71.019531 C 209.730469 63.476562 188.300781 62.210938 167 65.082031 C 165.304688 65.351562 163.605469 65.667969 161.90625 66.027344 C 140.082031 70.652344 120.921875 80.328125 104.425781 95.0625 C 100.136719 98.894531 95.710938 103.417969 91.839844 108.109375 C 78.882812 123.804688 70.296875 141.441406 66.078125 161.011719 C 57.496094 200.84375 69.964844 228.148438 70.863281 230.34375 C 60.105469 247.632812 60.207031 247.863281 42.785156 275.242188 C 30.289062 255.21875 23.222656 232.726562 19.703125 209.527344 C 18.597656 201.109375 18.136719 192.488281 18.324219 183.660156 C 18.644531 168.238281 20.972656 153.273438 25.304688 138.765625 C 30.921875 119.972656 39.578125 102.722656 51.28125 87.007812 C 64.082031 69.824219 80.1875 54.8125 98.535156 43.535156 C 119.289062 30.777344 141.71875 22.878906 165.832031 19.835938 C 179.964844 18.054688 194.128906 18.042969 208.328125 19.808594 C 231.964844 22.503906 254.328125 30.910156 274.746094 42.816406 C 244.925781 61.585938 244.898438 61.59375 230.042969 71.019531 Z M 230.042969 71.019531 " fill-opacity="1" fill-rule="nonzero"/><path fill="#f0f3ff" d="M 145.617188 304.261719 C 146.183594 304.527344 165.507812 312.84375 194.296875 311.390625 C 224.988281 309.847656 254.21875 296.78125 275.730469 275.035156 C 291.140625 259.453125 301.714844 241.167969 307.449219 220.179688 C 313.566406 197.777344 313.113281 174.191406 306.636719 151.988281 C 305.46875 147.992188 304.417969 145.238281 304.304688 144.976562 C 313.675781 130.011719 313.671875 130.011719 332.417969 100.066406 C 347.242188 124.035156 354.40625 151.128906 356.496094 179.015625 C 356.90625 187.042969 356.757812 194.957031 356.058594 202.753906 C 353.410156 232.144531 343.804688 258.914062 327.238281 283.070312 C 319.359375 294.5625 309.964844 305.09375 299.066406 314.664062 C 280.882812 330.625 260.398438 342.097656 237.613281 349.089844 C 216.265625 355.640625 194.117188 357.835938 171.167969 355.671875 C 167.765625 355.480469 156.367188 354.75 140.746094 349.996094 C 125.5 345.359375 106.640625 336.617188 100.574219 332.457031 C 118.953125 320.832031 118.988281 320.824219 145.617188 304.261719 Z M 145.617188 304.261719 " fill-opacity="1" fill-rule="nonzero"/><g clip-path="url(#a3957e5701)"><g clip-path="url(#6afbb346e6)"><g clip-path="url(#dbfe783954)"><path fill="#00022b" d="M 342.046875 -32.929688 L 407.929688 32.953125 L 264.835938 176.046875 L 198.953125 110.164062 Z M 342.046875 -32.929688 " fill-opacity="1" fill-rule="nonzero"/></g></g></g><g clip-path="url(#270e5b8c21)"><g clip-path="url(#cd695f61e1)"><g clip-path="url(#7e0fedd2f4)"><path fill="#0009e6" d="M 187.496094 121.617188 L 253.378906 187.503906 L 187.496094 253.386719 L 121.613281 187.503906 Z M 187.496094 121.617188 " fill-opacity="1" fill-rule="nonzero"/></g></g></g><g clip-path="url(#c3602e9733)"><g clip-path="url(#f2a35fea8d)"><g clip-path="url(#2d860f12f2)"><path fill="#f0f3ff" d="M 32.945312 407.925781 L -32.941406 342.042969 L 110.191406 198.910156 L 176.074219 264.796875 Z M 32.945312 407.925781 " fill-opacity="1" fill-rule="nonzero"/></g></g></g></svg>