<svg
  xmlns="http://www.w3.org/2000/svg"
  width="1200"
  height="630"
  viewBox="0 0 1200 630"
>
  <defs>
    <linearGradient
      id="bg"
      x1="0"
      y1="0"
      x2="1200"
      y2="630"
      gradientUnits="userSpaceOnUse"
    >
      <stop offset="0" stop-color="#071321" />
      <stop offset="0.48" stop-color="#10284a" />
      <stop offset="1" stop-color="#0b4f6d" />
    </linearGradient>
    <linearGradient
      id="panel"
      x1="708"
      y1="76"
      x2="1118"
      y2="540"
      gradientUnits="userSpaceOnUse"
    >
      <stop offset="0" stop-color="#163b68" stop-opacity="0.88" />
      <stop offset="1" stop-color="#091a2f" stop-opacity="0.96" />
    </linearGradient>
    <pattern id="grid" width="40" height="40" patternUnits="userSpaceOnUse">
      <path
        d="M 40 0 H 0 V 40"
        fill="none"
        stroke="#ffffff"
        stroke-opacity="0.055"
        stroke-width="1"
      />
    </pattern>
    <filter id="softShadow" x="-20%" y="-20%" width="140%" height="140%">
      <feDropShadow
        dx="0"
        dy="24"
        stdDeviation="28"
        flood-color="#000000"
        flood-opacity="0.34"
      />
    </filter>
  </defs>

  <rect width="1200" height="630" fill="url(#bg)" />
  <rect width="1200" height="630" fill="url(#grid)" />
  <path
    d="M 688 -80 L 1210 -80 L 1210 230 C 1040 240 918 190 800 86 C 755 47 720 2 688 -80 Z"
    fill="#2684ff"
    opacity="0.22"
  />
  <path
    d="M -40 496 C 160 448 310 466 470 544 C 564 590 660 614 804 596 L 804 680 L -40 680 Z"
    fill="#24d18e"
    opacity="0.16"
  />
  <path
    d="M 704 548 L 1200 342 L 1200 630 L 704 630 Z"
    fill="#ff9f43"
    opacity="0.11"
  />

  <g transform="translate(76 54)">
    <svg width="76" height="76" viewBox="0 0 375 374.999991">
      <defs>
        <clipPath id="a3957e5701">
          <path d="M 198 0 L 375 0 L 375 177 L 198 177 Z M 198 0" />
        </clipPath>
        <clipPath id="6afbb346e6">
          <path
            d="M 342.046875 -32.929688 L 407.929688 32.953125 L 264.835938 176.046875 L 198.953125 110.164062 Z M 342.046875 -32.929688"
          />
        </clipPath>
        <clipPath id="dbfe783954">
          <path
            d="M 374.988281 0.0117188 L 264.835938 176.046875 L 198.953125 110.164062 Z M 374.988281 0.0117188"
          />
        </clipPath>
        <clipPath id="270e5b8c21">
          <path d="M 140 140 L 235 140 L 235 235 L 140 235 Z M 140 140" />
        </clipPath>
        <clipPath id="cd695f61e1">
          <path
            d="M 187.496094 121.617188 L 253.378906 187.503906 L 187.496094 253.386719 L 121.613281 187.503906 Z M 187.496094 121.617188"
          />
        </clipPath>
        <clipPath id="7e0fedd2f4">
          <path
            d="M 220.4375 154.558594 C 202.242188 136.367188 172.746094 136.367188 154.554688 154.558594 C 136.359375 172.753906 136.359375 202.25 154.554688 220.445312 C 172.746094 238.636719 202.242188 238.636719 220.4375 220.445312 C 238.628906 202.25 238.628906 172.753906 220.4375 154.558594 Z M 220.4375 154.558594"
          />
        </clipPath>
        <clipPath id="c3602e9733">
          <path d="M 0 198 L 177 198 L 177 375 L 0 375 Z M 0 198" />
        </clipPath>
        <clipPath id="f2a35fea8d">
          <path
            d="M 32.945312 407.925781 L -32.941406 342.042969 L 110.191406 198.910156 L 176.074219 264.796875 Z M 32.945312 407.925781"
          />
        </clipPath>
        <clipPath id="2d860f12f2">
          <path
            d="M 0.00390625 374.984375 L 110.191406 198.910156 L 176.074219 264.796875 Z M 0.00390625 374.984375"
          />
        </clipPath>
      </defs>
      <path
        fill="#00022b"
        d="M 230.042969 71.019531 C 209.730469 63.476562 188.300781 62.210938 167 65.082031 C 165.304688 65.351562 163.605469 65.667969 161.90625 66.027344 C 140.082031 70.652344 120.921875 80.328125 104.425781 95.0625 C 100.136719 98.894531 95.710938 103.417969 91.839844 108.109375 C 78.882812 123.804688 70.296875 141.441406 66.078125 161.011719 C 57.496094 200.84375 69.964844 228.148438 70.863281 230.34375 C 60.105469 247.632812 60.207031 247.863281 42.785156 275.242188 C 30.289062 255.21875 23.222656 232.726562 19.703125 209.527344 C 18.597656 201.109375 18.136719 192.488281 18.324219 183.660156 C 18.644531 168.238281 20.972656 153.273438 25.304688 138.765625 C 30.921875 119.972656 39.578125 102.722656 51.28125 87.007812 C 64.082031 69.824219 80.1875 54.8125 98.535156 43.535156 C 119.289062 30.777344 141.71875 22.878906 165.832031 19.835938 C 179.964844 18.054688 194.128906 18.042969 208.328125 19.808594 C 231.964844 22.503906 254.328125 30.910156 274.746094 42.816406 C 244.925781 61.585938 244.898438 61.59375 230.042969 71.019531 Z M 230.042969 71.019531"
      />
      <path
        fill="#f0f3ff"
        d="M 145.617188 304.261719 C 146.183594 304.527344 165.507812 312.84375 194.296875 311.390625 C 224.988281 309.847656 254.21875 296.78125 275.730469 275.035156 C 291.140625 259.453125 301.714844 241.167969 307.449219 220.179688 C 313.566406 197.777344 313.113281 174.191406 306.636719 151.988281 C 305.46875 147.992188 304.417969 145.238281 304.304688 144.976562 C 313.675781 130.011719 313.671875 130.011719 332.417969 100.066406 C 347.242188 124.035156 354.40625 151.128906 356.496094 179.015625 C 356.90625 187.042969 356.757812 194.957031 356.058594 202.753906 C 353.410156 232.144531 343.804688 258.914062 327.238281 283.070312 C 319.359375 294.5625 309.964844 305.09375 299.066406 314.664062 C 280.882812 330.625 260.398438 342.097656 237.613281 349.089844 C 216.265625 355.640625 194.117188 357.835938 171.167969 355.671875 C 167.765625 355.480469 156.367188 354.75 140.746094 349.996094 C 125.5 345.359375 106.640625 336.617188 100.574219 332.457031 C 118.953125 320.832031 118.988281 320.824219 145.617188 304.261719 Z M 145.617188 304.261719"
      />
      <g clip-path="url(#a3957e5701)">
        <g clip-path="url(#6afbb346e6)">
          <g clip-path="url(#dbfe783954)">
            <path
              fill="#00022b"
              d="M 342.046875 -32.929688 L 407.929688 32.953125 L 264.835938 176.046875 L 198.953125 110.164062 Z M 342.046875 -32.929688"
            />
          </g>
        </g>
      </g>
      <g clip-path="url(#270e5b8c21)">
        <g clip-path="url(#cd695f61e1)">
          <g clip-path="url(#7e0fedd2f4)">
            <path
              fill="#0009e6"
              d="M 187.496094 121.617188 L 253.378906 187.503906 L 187.496094 253.386719 L 121.613281 187.503906 Z M 187.496094 121.617188"
            />
          </g>
        </g>
      </g>
      <g clip-path="url(#c3602e9733)">
        <g clip-path="url(#f2a35fea8d)">
          <g clip-path="url(#2d860f12f2)">
            <path
              fill="#f0f3ff"
              d="M 32.945312 407.925781 L -32.941406 342.042969 L 110.191406 198.910156 L 176.074219 264.796875 Z M 32.945312 407.925781"
            />
          </g>
        </g>
      </g>
    </svg>
    <text
      x="98"
      y="48"
      fill="#f8fbff"
      font-family="Noto Sans JP, Yu Gothic, Meiryo, sans-serif"
      font-size="32"
      font-weight="800"
    >
      Acecore
    </text>
  </g>

  <g
    transform="translate(76 214)"
    font-family="Noto Sans JP, Yu Gothic, Meiryo, sans-serif"
  >
    <text x="0" y="0" fill="#ffffff" font-size="86" font-weight="900">
      Acecore
    </text>
    <text x="2" y="72" fill="#dbeafe" font-size="38" font-weight="800">
      システム開発・Web制作・IT教育
    </text>
    <text x="4" y="122" fill="#9cc8e9" font-size="24" font-weight="700">
      Technology × Creative / One-stop digital partner
    </text>
  </g>

  <g
    transform="translate(76 408)"
    font-family="Noto Sans JP, Yu Gothic, Meiryo, sans-serif"
  >
    <g filter="url(#softShadow)">
      <rect
        x="0"
        y="0"
        width="184"
        height="118"
        rx="20"
        fill="#0d223c"
        stroke="#65d8ff"
        stroke-opacity="0.35"
      />
      <text x="20" y="44" fill="#65d8ff" font-size="16" font-weight="800">
        01
      </text>
      <text x="20" y="78" fill="#ffffff" font-size="23" font-weight="800">
        Systems
      </text>
      <text x="20" y="103" fill="#9cc8e9" font-size="17" font-weight="700">
        設計から運用まで
      </text>
    </g>
    <g transform="translate(208 0)" filter="url(#softShadow)">
      <rect
        x="0"
        y="0"
        width="184"
        height="118"
        rx="20"
        fill="#0d223c"
        stroke="#24d18e"
        stroke-opacity="0.38"
      />
      <text x="20" y="44" fill="#24d18e" font-size="16" font-weight="800">
        02
      </text>
      <text x="20" y="78" fill="#ffffff" font-size="23" font-weight="800">
        Web
      </text>
      <text x="20" y="103" fill="#9cc8e9" font-size="17" font-weight="700">
        制作と改善を一体化
      </text>
    </g>
    <g transform="translate(416 0)" filter="url(#softShadow)">
      <rect
        x="0"
        y="0"
        width="184"
        height="118"
        rx="20"
        fill="#0d223c"
        stroke="#ffcc6e"
        stroke-opacity="0.42"
      />
      <text x="20" y="44" fill="#ffcc6e" font-size="16" font-weight="800">
        03
      </text>
      <text x="20" y="78" fill="#ffffff" font-size="23" font-weight="800">
        Education
      </text>
      <text x="20" y="103" fill="#9cc8e9" font-size="17" font-weight="700">
        現場で使うIT教育
      </text>
    </g>
  </g>

  <g transform="translate(744 86)" filter="url(#softShadow)">
    <rect
      width="380"
      height="452"
      rx="34"
      fill="url(#panel)"
      stroke="#7dd3fc"
      stroke-opacity="0.22"
    />
    <rect
      x="28"
      y="28"
      width="324"
      height="54"
      rx="17"
      fill="#071321"
      opacity="0.82"
    />
    <circle cx="58" cy="55" r="7" fill="#ff9f43" />
    <circle cx="82" cy="55" r="7" fill="#24d18e" />
    <circle cx="106" cy="55" r="7" fill="#65d8ff" />
    <rect
      x="140"
      y="48"
      width="138"
      height="14"
      rx="7"
      fill="#335f8b"
      opacity="0.9"
    />

    <g transform="translate(34 116)">
      <rect
        width="144"
        height="118"
        rx="20"
        fill="#102a47"
        stroke="#65d8ff"
        stroke-opacity="0.24"
      />
      <rect
        x="24"
        y="26"
        width="72"
        height="10"
        rx="5"
        fill="#65d8ff"
        opacity="0.9"
      />
      <rect
        x="24"
        y="50"
        width="96"
        height="9"
        rx="4.5"
        fill="#cfe9ff"
        opacity="0.55"
      />
      <rect
        x="24"
        y="72"
        width="92"
        height="9"
        rx="4.5"
        fill="#cfe9ff"
        opacity="0.3"
      />

      <rect
        x="174"
        y="0"
        width="144"
        height="118"
        rx="20"
        fill="#102a47"
        stroke="#24d18e"
        stroke-opacity="0.24"
      />
      <polyline
        points="200,82 232,52 264,66 304,28"
        fill="none"
        stroke="#24d18e"
        stroke-width="7"
        stroke-linecap="round"
        stroke-linejoin="round"
      />
      <circle cx="200" cy="82" r="8" fill="#24d18e" />
      <circle cx="232" cy="52" r="8" fill="#24d18e" />
      <circle cx="264" cy="66" r="8" fill="#24d18e" />
      <circle cx="304" cy="28" r="8" fill="#24d18e" />
    </g>

    <g transform="translate(34 268)">
      <rect
        width="312"
        height="124"
        rx="22"
        fill="#071321"
        opacity="0.78"
        stroke="#ffffff"
        stroke-opacity="0.08"
      />
      <text
        x="24"
        y="40"
        fill="#65d8ff"
        font-family="Consolas, monospace"
        font-size="20"
        font-weight="700"
      >
        const acecore = {
      </text>
      <text
        x="54"
        y="72"
        fill="#dbeafe"
        font-family="Consolas, monospace"
        font-size="20"
      >
        build: "systems",
      </text>
      <text
        x="54"
        y="104"
        fill="#dbeafe"
        font-family="Consolas, monospace"
        font-size="20"
      >
        ship: "web", learn: "it"
      </text>
    </g>
  </g>

  <text
    x="76"
    y="578"
    fill="#c9def4"
    opacity="0.72"
    font-family="Noto Sans JP, Yu Gothic, Meiryo, sans-serif"
    font-size="22"
    font-weight="700"
  >
    acecore.net
  </text>
  <path
    d="M 980 578 H 1124"
    stroke="#65d8ff"
    stroke-width="4"
    stroke-linecap="round"
    opacity="0.7"
  />
</svg>
